# xmcd
#
# Track frame offsets: 
#        150
#        9029
#        19991
#        40817
#        59128
#        72514
#        78377
#        109220
#        122536
#        134250
#        150520
#        174578
#        198594
#
# Disc length: 2791 seconds
#
# Revision: 7
# Processed by: cddbd v1.5.2PL0 Copyright (c) Steve Scherf et al.
# Submitted via: ExactAudioCopy v1.0b4
#
DISCID=ad0ae50d
DTITLE=Climax Chicago Bluse Band - A Lot Of Bottle
DYEAR=1990
DGENRE=Blues Rock
TTITLE0=Country Hat
TTITLE1=Everyday
TTITLE2=Reap What I've Sowed
TTITLE3=Brief Case
TTITLE4=Alright Blue?
TTITLE5=Country Hat (Reprise)
TTITLE6=Seventh Son
TTITLE7=Please Don't Help Me
TTITLE8=Morning Noon And Night
TTITLE9=Long Lovin' Man
TTITLE10=Louisiana Blues
TTITLE11=Cut You Loose
TTITLE12=(bonus) Lovin' Machine
EXTD=
EXTT0=
EXTT1=
EXTT2=
EXTT3=
EXTT4=
EXTT5=
EXTT6=
EXTT7=
EXTT8=
EXTT9=
EXTT10=
EXTT11=
EXTT12=
PLAYORDER=
